<?xml version="1.0" encoding="UTF-8" standalone="no"?>
<!DOCTYPE svg PUBLIC "-//W3C//DTD SVG 1.1//EN" "http://www.w3.org/Graphics/SVG/1.1/DTD/svg11.dtd">
<svg
                id="svg-render"
                class="active-svg gallery-heading"
                width="176"
                height="44"
                viewBox="0 0 176 44"
                fill="none"
                xmlns="http://www.w3.org/2000/svg"
              >
                <path
                  class="color"
                  d="M36.856 27.68L38.392 30.032C36.824 35.536 33.576 38.288 28.648 38.288C27.528 38.288 26.552 38.08 25.72 37.664C24.92 37.248 24.312 36.752 23.896 36.176C23.48 35.6 23.144 34.864 22.888 33.968C22.536 32.624 22.344 30.848 22.312 28.64C22.312 26.432 22.04 24.912 21.496 24.08C20.984 23.248 19.992 22.784 18.52 22.688L19.048 18.608C19.112 18.608 19.16 18.608 19.192 18.608C21.048 18.608 22.584 18.08 23.8 17.024C25.112 15.84 25.768 14.32 25.768 12.464C25.768 10.608 24.888 9.03999 23.128 7.75998C21.4 6.47999 19.16 5.83999 16.408 5.83999C12.856 5.83999 10.12 6.71999 8.19998 8.47999C7.17598 9.43999 6.66398 10.592 6.66398 11.936C6.66398 13.632 7.95998 14.656 10.552 15.008L9.87998 18.608C7.92798 18.512 6.19998 17.856 4.69598 16.64C3.19198 15.424 2.43998 13.856 2.43998 11.936C2.43998 8.57598 3.84798 5.99999 6.66398 4.20798C9.47998 2.38398 13.048 1.47198 17.368 1.47198C20.152 1.47198 22.6 1.80799 24.712 2.47999C28.328 3.69599 30.728 5.80799 31.912 8.81598C32.296 9.87198 32.488 10.736 32.488 11.408C32.488 12.048 32.488 12.48 32.488 12.704C32.36 14.464 31.704 16.192 30.52 17.888C29.368 19.584 27.624 20.752 25.288 21.392C26.696 21.68 27.656 22.288 28.168 23.216C28.68 24.144 28.952 25.552 28.984 27.44C29.016 30.672 29.16 32.64 29.416 33.344C29.704 34.016 30.28 34.352 31.144 34.352C33.48 34.352 35.384 32.128 36.856 27.68ZM7.43198 38.288C5.73598 38.288 4.37598 37.776 3.35198 36.752C2.32798 35.728 1.81598 34.464 1.81598 32.96C1.81598 29.056 4.67998 25.792 10.408 23.168C11.56 14.208 12.152 9.61598 12.184 9.39198C13.528 8.52798 15.048 8.09599 16.744 8.09599C17.448 8.09599 18.248 8.19199 19.144 8.38399L16.12 28.88C15.16 35.152 12.264 38.288 7.43198 38.288ZM5.36798 32.384C5.36798 33.408 5.91198 33.92 6.99998 33.92C8.27998 33.92 9.09598 32.768 9.44798 30.464L9.87998 27.2C6.87198 28.96 5.36798 30.688 5.36798 32.384Z"
                  stroke="var(--text1)"
                  stroke-width=".6"
                  mask="url(#path-1-outside-1)"
                />
                <path
                  class="color"
                  d="M43.6214 27.248C45.6054 26.832 47.0774 26.032 48.0374 24.848C49.0294 23.664 49.5254 22.528 49.5254 21.44C49.5254 20.32 49.2214 19.568 48.6134 19.184C48.0374 18.768 47.3974 18.56 46.6934 18.56C45.1894 18.56 43.8614 19.408 42.7094 21.104C41.5894 22.768 41.0294 24.768 41.0294 27.104C41.0294 29.408 41.5734 31.136 42.6614 32.288C43.7814 33.408 45.1574 33.968 46.7894 33.968C49.1894 33.968 51.4934 33.136 53.7014 31.472C55.9094 29.808 57.7014 27.632 59.0774 24.944C59.7814 25.616 60.4214 26.448 60.9974 27.44C59.9414 29.84 58.0694 32.192 55.3814 34.496C54.0374 35.616 52.4374 36.528 50.5814 37.232C48.7574 37.936 46.8694 38.288 44.9174 38.288C41.7174 38.288 39.1894 37.312 37.3334 35.36C35.3494 33.248 34.3574 30.544 34.3574 27.248C34.3574 23.952 35.5894 21.072 38.0534 18.608C40.5494 16.144 43.5254 14.912 46.9814 14.912C49.4454 14.912 51.4454 15.456 52.9814 16.544C54.5174 17.6 55.3014 19.04 55.3334 20.864C55.3334 23.328 54.3414 25.328 52.3574 26.864C50.4054 28.4 47.7174 29.472 44.2934 30.08L43.6214 27.248Z"
                  stroke="var(--text1)"
                  stroke-width=".6"
                  mask="url(#path-1-outside-1)"
                />
                <path
                  class="color"
                  d="M70.7327 32.624L71.8847 21.92C71.8847 21.056 71.6607 20.336 71.2127 19.76C70.7647 19.184 70.0127 18.896 68.9567 18.896C67.9327 18.896 67.0527 19.36 66.3167 20.288C65.6127 21.184 65.1647 22.32 64.9727 23.696C63.8207 32.464 63.2127 37.232 63.1487 38H56.6687L59.3087 15.392C60.6527 15.04 61.6767 14.864 62.3807 14.864C64.5247 14.864 65.6447 15.648 65.7407 17.216C67.3087 15.68 69.1807 14.912 71.3567 14.912C73.5647 14.912 75.2927 15.456 76.5407 16.544C77.7887 17.632 78.4127 19.008 78.4127 20.672C78.4127 21.12 78.3167 21.968 78.1247 23.216C77.3887 28.08 77.0207 30.912 77.0207 31.712C77.0207 33.184 77.5167 33.92 78.5087 33.92C80.6847 33.92 82.3327 31.648 83.4527 27.104C84.5407 28.256 85.1967 29.168 85.4207 29.84C83.7247 35.472 80.7807 38.288 76.5887 38.288C74.6047 38.288 73.1327 37.68 72.1727 36.464C71.2127 35.248 70.7327 33.968 70.7327 32.624Z"
                  stroke="var(--text1)"
                  stroke-width=".6"
                  mask="url(#path-1-outside-1)"
                />
                <path
                  class="color"
                  d="M100.279 3.39199C100.503 2.84799 100.999 2.39999 101.767 2.04799C102.567 1.66399 103.511 1.47198 104.599 1.47198C105.719 1.47198 106.551 1.63198 107.095 1.95198C106.775 4.44798 106.263 8.36798 105.559 13.712C104.087 24.88 103.351 31.04 103.351 32.192C103.351 33.312 103.831 33.872 104.791 33.872C105.623 33.872 106.487 33.36 107.383 32.336C108.279 31.28 109.095 29.568 109.831 27.2C110.727 28.064 111.351 29.008 111.703 30.032C110.551 33.84 108.743 36.304 106.279 37.424C105.159 37.968 104.103 38.24 103.111 38.24C100.263 38.24 98.3594 37.216 97.3994 35.168C95.7354 37.248 93.6073 38.288 91.0154 38.288C88.4233 38.288 86.2314 37.408 84.4394 35.648C82.6794 33.888 81.7994 31.568 81.7994 28.688C81.7994 24.496 83.0314 21.152 85.4954 18.656C87.9594 16.16 91.0794 14.912 94.8554 14.912C94.9514 14.912 95.0474 14.912 95.1434 14.912C96.4554 14.912 97.6874 15.104 98.8394 15.488L100.279 3.39199ZM95.5754 18.656C93.5274 18.656 91.8954 19.44 90.6794 21.008C89.4954 22.544 88.7914 24.848 88.5674 27.92C88.5354 28.208 88.5194 28.48 88.5194 28.736C88.5194 30.304 88.8874 31.552 89.6234 32.48C90.3914 33.408 91.3674 33.872 92.5514 33.872C94.5674 33.872 96.0874 32.448 97.1114 29.6L98.3594 19.28C97.3034 18.864 96.3754 18.656 95.5754 18.656Z"
                  stroke="var(--text1)"
                  stroke-width=".6"
                  mask="url(#path-1-outside-1)"
                />
                <path
                  class="color"
                  d="M117.168 27.248C119.152 26.832 120.624 26.032 121.584 24.848C122.576 23.664 123.072 22.528 123.072 21.44C123.072 20.32 122.768 19.568 122.16 19.184C121.584 18.768 120.944 18.56 120.24 18.56C118.736 18.56 117.408 19.408 116.256 21.104C115.136 22.768 114.576 24.768 114.576 27.104C114.576 29.408 115.12 31.136 116.208 32.288C117.328 33.408 118.704 33.968 120.336 33.968C122.736 33.968 125.04 33.136 127.248 31.472C129.456 29.808 131.248 27.632 132.624 24.944C133.328 25.616 133.968 26.448 134.544 27.44C133.488 29.84 131.616 32.192 128.928 34.496C127.584 35.616 125.984 36.528 124.128 37.232C122.304 37.936 120.416 38.288 118.464 38.288C115.264 38.288 112.736 37.312 110.88 35.36C108.896 33.248 107.904 30.544 107.904 27.248C107.904 23.952 109.136 21.072 111.6 18.608C114.096 16.144 117.072 14.912 120.528 14.912C122.992 14.912 124.992 15.456 126.528 16.544C128.064 17.6 128.848 19.04 128.88 20.864C128.88 23.328 127.888 25.328 125.904 26.864C123.952 28.4 121.264 29.472 117.84 30.08L117.168 27.248Z"
                  stroke="var(--text1)"
                  stroke-width=".6"
                  mask="url(#path-1-outside-1)"
                />
                <path
                  class="color"
                  d="M144.76 21.2C144.76 19.792 144.104 19.088 142.792 19.088C141.512 19.088 140.488 19.92 139.72 21.584C143.176 24.304 144.904 27.36 144.904 30.752C144.904 33.216 144.216 35.088 142.84 36.368C141.464 37.648 139.736 38.288 137.656 38.288C135.576 38.288 134.056 37.648 133.096 36.368C132.136 35.056 131.656 33.408 131.656 31.424C131.656 30.816 131.672 30.368 131.704 30.08L133.384 15.44C134.536 15.088 135.704 14.912 136.888 14.912C138.84 14.912 139.816 15.632 139.816 17.072V17.168C141.096 15.664 142.728 14.912 144.712 14.912C146.152 14.912 147.272 15.248 148.072 15.92C148.872 16.56 149.272 17.424 149.272 18.512C149.272 19.6 148.856 20.496 148.024 21.2C147.224 21.872 146.168 22.208 144.856 22.208C144.792 22.208 144.728 22.208 144.664 22.208C144.728 21.856 144.76 21.52 144.76 21.2ZM141.784 30.512C141.784 28.656 140.824 26.8 138.904 24.944C138.328 29.552 138.04 31.872 138.04 31.904C138.04 33.248 138.584 33.92 139.672 33.92C141.08 33.92 141.784 32.784 141.784 30.512Z"
                  stroke="var(--text1)"
                  stroke-width=".6"
                  mask="url(#path-1-outside-1)"
                />
                <path
                  class="color"
                  d="M170.445 23.312C172.973 25.168 174.237 27.36 174.237 29.888C174.237 32.416 173.245 34.448 171.261 35.984C169.277 37.52 166.781 38.288 163.773 38.288C161.821 38.288 160.189 37.808 158.877 36.848C157.597 35.856 156.957 34.64 156.957 33.2C156.957 31.76 157.437 30.624 158.397 29.792C159.357 28.928 160.557 28.4 161.997 28.208C161.325 29.168 160.989 30.096 160.989 30.992C160.989 31.856 161.293 32.56 161.901 33.104C162.509 33.648 163.277 33.92 164.205 33.92C165.133 33.92 165.901 33.584 166.509 32.912C167.117 32.208 167.421 31.408 167.421 30.512C167.421 29.04 166.733 27.728 165.357 26.576C164.525 25.904 163.629 25.28 162.669 24.704C161.709 24.096 161.197 23.776 161.133 23.744C161.005 23.648 160.877 23.568 160.749 23.504C160.173 24.176 159.341 25.104 158.253 26.288C157.165 27.44 156.301 28.368 155.661 29.072C153.869 31.024 152.861 32.656 152.637 33.968C152.573 34.224 152.541 34.72 152.541 35.456C152.541 36.16 152.749 36.896 153.165 37.664C153.613 38.432 154.141 39.008 154.749 39.392C155.357 39.776 155.949 40.08 156.525 40.304C157.133 40.56 157.645 40.736 158.061 40.832C158.509 40.928 158.733 40.992 158.733 41.024C158.733 41.248 158.381 41.504 157.677 41.792C156.365 42.272 154.989 42.512 153.549 42.512C152.141 42.512 150.765 42 149.421 40.976C147.597 39.568 146.685 37.696 146.685 35.36C146.685 33.92 147.053 32.496 147.789 31.088C149.101 28.592 152.173 25.168 157.005 20.816C155.821 19.632 155.229 18.368 155.229 17.024C155.229 15.68 155.725 14.544 156.717 13.616C157.741 12.688 158.941 12.224 160.317 12.224C161.565 12.224 162.653 12.72 163.581 13.712C164.189 14.384 164.493 15.232 164.493 16.256C164.493 17.28 164.157 18.432 163.485 19.712C166.909 21.248 169.229 22.448 170.445 23.312ZM160.029 17.888C160.797 17.088 161.181 16.512 161.181 16.16C161.181 15.36 160.829 14.928 160.125 14.864C159.325 14.864 158.925 15.312 158.925 16.208C158.925 16.752 159.293 17.312 160.029 17.888Z"
                  stroke="var(--text1)"
                  stroke-width=".6"
                  mask="url(#path-1-outside-1)"
                />
              </svg>