{
  "asset": {
    "version": "2.0",
    "generator": "Sketchup glTF Exporter v1.2.6 by Centaur"
  },
  "scene": 0,
  "scenes": [
    {
      "nodes": [
        0
      ]
    }
  ],
  "samplers": [
    {
    }
  ],
  "nodes": [
    {
      "name": "root",
      "children": [
        1
      ]
    },
    {
      "children": [
        2,
        3,
        4,
        5,
        6,
        7,
        8,
        9,
        10,
        11,
        12,
        13,
        14,
        15,
        16,
        17
      ]
    },
    {
      "mesh": 0
    },
    {
      "mesh": 1
    },
    {
      "mesh": 2
    },
    {
      "mesh": 3
    },
    {
      "mesh": 4
    },
    {
      "mesh": 5
    },
    {
      "mesh": 6
    },
    {
      "mesh": 7
    },
    {
      "mesh": 8
    },
    {
      "mesh": 9
    },
    {
      "mesh": 10
    },
    {
      "mesh": 11
    },
    {
      "mesh": 12
    },
    {
      "mesh": 13
    },
    {
      "mesh": 14
    },
    {
      "mesh": 15
    }
  ],
  "materials": [
    {
      "pbrMetallicRoughness": {
        "baseColorFactor": [
          0.2176,
          0.2176,
          0.2176,
          1.0
        ],
        "metallicFactor": 0.1,
        "roughnessFactor": 0.9
      },
      "name": "default material",
      "doubleSided": true
    }
  ],
  "meshes": [
    {
      "primitives": [
        {
          "attributes": {
            "POSITION": 0,
            "NORMAL": 1
          },
          "indices": 2,
          "mode": 4,
          "material": 0
        }
      ]
    },
    {
      "primitives": [
        {
          "attributes": {
            "POSITION": 0,
            "NORMAL": 1
          },
          "indices": 3,
          "mode": 4,
          "material": 0
        }
      ]
    },
    {
      "primitives": [
        {
          "attributes": {
            "POSITION": 0,
            "NORMAL": 1
          },
          "indices": 4,
          "mode": 4,
          "material": 0
        }
      ]
    },
    {
      "primitives": [
        {
          "attributes": {
            "POSITION": 0,
            "NORMAL": 1
          },
          "indices": 5,
          "mode": 4,
          "material": 0
        }
      ]
    },
    {
      "primitives": [
        {
          "attributes": {
            "POSITION": 0,
            "NORMAL": 1
          },
          "indices": 6,
          "mode": 4,
          "material": 0
        }
      ]
    },
    {
      "primitives": [
        {
          "attributes": {
            "POSITION": 0,
            "NORMAL": 1
          },
          "indices": 7,
          "mode": 4,
          "material": 0
        }
      ]
    },
    {
      "primitives": [
        {
          "attributes": {
            "POSITION": 0,
            "NORMAL": 1
          },
          "indices": 8,
          "mode": 4,
          "material": 0
        }
      ]
    },
    {
      "primitives": [
        {
          "attributes": {
            "POSITION": 0,
            "NORMAL": 1
          },
          "indices": 9,
          "mode": 4,
          "material": 0
        }
      ]
    },
    {
      "primitives": [
        {
          "attributes": {
            "POSITION": 0,
            "NORMAL": 1
          },
          "indices": 10,
          "mode": 4,
          "material": 0
        }
      ]
    },
    {
      "primitives": [
        {
          "attributes": {
            "POSITION": 0,
            "NORMAL": 1
          },
          "indices": 11,
          "mode": 4,
          "material": 0
        }
      ]
    },
    {
      "primitives": [
        {
          "attributes": {
            "POSITION": 0,
            "NORMAL": 1
          },
          "indices": 12,
          "mode": 4,
          "material": 0
        }
      ]
    },
    {
      "primitives": [
        {
          "attributes": {
            "POSITION": 0,
            "NORMAL": 1
          },
          "indices": 13,
          "mode": 4,
          "material": 0
        }
      ]
    },
    {
      "primitives": [
        {
          "attributes": {
            "POSITION": 0,
            "NORMAL": 1
          },
          "indices": 14,
          "mode": 4,
          "material": 0
        }
      ]
    },
    {
      "primitives": [
        {
          "attributes": {
            "POSITION": 0,
            "NORMAL": 1
          },
          "indices": 15,
          "mode": 4,
          "material": 0
        }
      ]
    },
    {
      "primitives": [
        {
          "attributes": {
            "POSITION": 0,
            "NORMAL": 1
          },
          "indices": 16,
          "mode": 4,
          "material": 0
        }
      ]
    },
    {
      "primitives": [
        {
          "attributes": {
            "POSITION": 0,
            "NORMAL": 1
          },
          "indices": 17,
          "mode": 4,
          "material": 0
        }
      ]
    }
  ],
  "accessors": [
    {
      "bufferView": 0,
      "componentType": 5126,
      "count": 6223,
      "type": "VEC3",
      "min": [
        -0.13326392143223456,
        -1.5844055811754748e-17,
        -0.2587530677871581
      ],
      "max": [
        0.21673607856776536,
        0.5949999999999999,
        0.19124693221284772
      ]
    },
    {
      "bufferView": 1,
      "componentType": 5126,
      "count": 6223,
      "type": "VEC3",
      "min": [
        -1.0,
        -1.0,
        -1.0
      ],
      "max": [
        1.0,
        1.0,
        1.0
      ]
    },
    {
      "bufferView": 2,
      "componentType": 5123,
      "count": 756,
      "type": "SCALAR"
    },
    {
      "bufferView": 2,
      "componentType": 5123,
      "count": 756,
      "type": "SCALAR",
      "byteOffset": 1512
    },
    {
      "bufferView": 2,
      "componentType": 5123,
      "count": 300,
      "type": "SCALAR",
      "byteOffset": 3024
    },
    {
      "bufferView": 2,
      "componentType": 5123,
      "count": 300,
      "type": "SCALAR",
      "byteOffset": 3624
    },
    {
      "bufferView": 2,
      "componentType": 5123,
      "count": 300,
      "type": "SCALAR",
      "byteOffset": 4224
    },
    {
      "bufferView": 2,
      "componentType": 5123,
      "count": 300,
      "type": "SCALAR",
      "byteOffset": 4824
    },
    {
      "bufferView": 2,
      "componentType": 5123,
      "count": 3372,
      "type": "SCALAR",
      "byteOffset": 5424
    },
    {
      "bufferView": 2,
      "componentType": 5123,
      "count": 3300,
      "type": "SCALAR",
      "byteOffset": 12168
    },
    {
      "bufferView": 2,
      "componentType": 5123,
      "count": 3372,
      "type": "SCALAR",
      "byteOffset": 18768
    },
    {
      "bufferView": 2,
      "componentType": 5123,
      "count": 3300,
      "type": "SCALAR",
      "byteOffset": 25512
    },
    {
      "bufferView": 2,
      "componentType": 5123,
      "count": 300,
      "type": "SCALAR",
      "byteOffset": 32112
    },
    {
      "bufferView": 2,
      "componentType": 5123,
      "count": 300,
      "type": "SCALAR",
      "byteOffset": 32712
    },
    {
      "bufferView": 2,
      "componentType": 5123,
      "count": 300,
      "type": "SCALAR",
      "byteOffset": 33312
    },
    {
      "bufferView": 2,
      "componentType": 5123,
      "count": 300,
      "type": "SCALAR",
      "byteOffset": 33912
    },
    {
      "bufferView": 2,
      "componentType": 5123,
      "count": 300,
      "type": "SCALAR",
      "byteOffset": 34512
    },
    {
      "bufferView": 2,
      "componentType": 5123,
      "count": 300,
      "type": "SCALAR",
      "byteOffset": 35112
    }
  ],
  "bufferViews": [
    {
      "buffer": 0,
      "byteLength": 74676,
      "target": 34962,
      "byteStride": 12
    },
    {
      "buffer": 0,
      "byteOffset": 74676,
      "byteLength": 74676,
      "target": 34962,
      "byteStride": 12
    },
    {
      "buffer": 0,
      "byteOffset": 149352,
      "byteLength": 35712,
      "target": 34963
    }
  ],
  "buffers": [
    {
      "uri": "data:application/octet-stream;base64,",
      "byteLength": 185064
    }
  ]
}