<?xml version="1.0" encoding="UTF-8" standalone="no"?>
<!DOCTYPE svg PUBLIC "-//W3C//DTD SVG 1.1//EN" "http://www.w3.org/Graphics/SVG/1.1/DTD/svg11.dtd">
<svg width="100%" height="100%" viewBox="0 0 800 800" version="1.1" xmlns="http://www.w3.org/2000/svg" xmlns:xlink="http://www.w3.org/1999/xlink" xml:space="preserve" xmlns:serif="http://www.serif.com/" style="fill-rule:evenodd;clip-rule:evenodd;stroke-linecap:round;stroke-linejoin:round;stroke-miterlimit:1.5;">
    <g transform="matrix(9.66991,0,0,9.66991,-511.285,8.68726)">
        <path d="M96.856,1.744C94.429,1.515 91.986,1.515 89.559,1.744L86.603,8.453C84.263,8.937 81.983,9.678 79.805,10.662L73.47,6.972C71.372,8.213 69.395,9.649 67.566,11.261L69.118,18.426C67.509,20.194 66.1,22.133 64.916,24.209L57.623,24.947C56.655,27.185 55.9,29.508 55.368,31.888L60.834,36.772C60.572,39.147 60.572,41.544 60.834,43.92L55.368,48.804C55.9,51.183 56.655,53.507 57.623,55.745L64.916,56.483C66.1,58.559 67.509,60.498 69.118,62.266L67.566,69.43C69.395,71.043 71.372,72.479 73.47,73.72L79.805,70.03C81.983,71.014 84.263,71.754 86.603,72.239L89.559,78.947C91.986,79.177 94.429,79.177 96.856,78.947L99.812,72.239C102.153,71.754 104.432,71.014 106.61,70.03L112.945,73.72C115.043,72.479 117.02,71.043 118.849,69.43L117.297,62.266C118.906,60.498 120.315,58.559 121.499,56.483L128.792,55.745C129.76,53.507 130.516,51.183 131.047,48.804L125.581,43.92C125.843,41.544 125.843,39.147 125.581,36.772L131.047,31.888C130.516,29.508 129.76,27.185 128.792,24.947L121.499,24.209C120.315,22.133 118.906,20.194 117.297,18.426L118.849,11.261C117.02,9.649 115.043,8.213 112.945,6.972L106.61,10.662C104.432,9.678 102.153,8.937 99.812,8.453L96.856,1.744ZM93.208,24.49C101.958,24.49 109.063,31.595 109.063,40.346C109.063,49.097 101.958,56.201 93.208,56.201C84.457,56.201 77.352,49.097 77.352,40.346C77.352,31.595 84.457,24.49 93.208,24.49Z" style="fill:white;stroke:white;stroke-width:0.21px;"/>
    </g>
</svg>
