<?xml version="1.0" encoding="UTF-8" standalone="no"?>
<!DOCTYPE svg PUBLIC "-//W3C//DTD SVG 1.1//EN" "http://www.w3.org/Graphics/SVG/1.1/DTD/svg11.dtd">
<svg width="100%" height="100%" viewBox="0 0 150 150" version="1.1" xmlns="http://www.w3.org/2000/svg" xmlns:xlink="http://www.w3.org/1999/xlink" xml:space="preserve" xmlns:serif="http://www.serif.com/" style="fill-rule:evenodd;clip-rule:evenodd;stroke-linecap:round;stroke-linejoin:round;stroke-miterlimit:1.5;">
    <g transform="matrix(1.88872,0,0,1.88872,5.73531,5.73531)">
        <circle cx="36.429" cy="36.429" r="38.11" style="stroke:black;stroke-width:0.95px;"/>
    </g>
    <g transform="matrix(1,0,0,1,-3.53416,-1.61584)">
        <path d="M84.625,8.733C80.267,8.31 75.879,8.31 71.522,8.733L69.364,19.239C65.188,19.878 61.094,20.975 57.158,22.51L50.036,14.49C46.051,16.302 42.251,18.496 38.689,21.042L42.073,31.219C38.776,33.861 35.779,36.857 33.137,40.155L22.96,36.77C20.415,40.332 18.221,44.133 16.409,48.118L24.428,55.24C22.893,59.176 21.797,63.269 21.158,67.446L10.652,69.604C10.228,73.961 10.228,78.349 10.652,82.706L21.158,84.864C21.797,89.041 22.893,93.134 24.428,97.07L16.409,104.192C18.221,108.177 20.415,111.977 22.96,115.539L33.137,112.155C35.779,115.452 38.776,118.449 42.073,121.091L38.689,131.268C42.251,133.813 46.051,136.007 50.036,137.819L57.158,129.8C61.094,131.335 65.188,132.431 69.364,133.071L71.522,143.576C75.879,144 80.267,144 84.625,143.576L86.782,133.071C90.959,132.431 95.052,131.335 98.989,129.8L106.11,137.819C110.096,136.007 113.896,133.813 117.458,131.268L114.074,121.091C117.371,118.449 120.367,115.452 123.009,112.155L133.186,115.539C135.732,111.977 137.926,108.177 139.738,104.192L131.718,97.07C133.253,93.134 134.35,89.041 134.989,84.864L145.495,82.706C145.918,78.349 145.918,73.961 145.495,69.604L134.989,67.446C134.35,63.269 133.253,59.176 131.718,55.24L139.738,48.118C137.926,44.133 135.732,40.332 133.186,36.77L123.009,40.155C120.367,36.857 117.371,33.861 114.074,31.219L117.458,21.042C113.896,18.496 110.096,16.302 106.11,14.49L98.989,22.51C95.052,20.975 90.959,19.878 86.782,19.239L84.625,8.733ZM78.073,40.093C97.976,40.093 114.135,56.252 114.135,76.155C114.135,96.058 97.976,112.216 78.073,112.216C58.17,112.216 42.012,96.058 42.012,76.155C42.012,56.252 58.17,40.093 78.073,40.093Z" style="fill:rgb(235,235,235);stroke:black;stroke-width:1.79px;"/>
    </g>
</svg>
