<?xml version="1.0" encoding="UTF-8" standalone="no"?>
<!DOCTYPE svg PUBLIC "-//W3C//DTD SVG 1.1//EN" "http://www.w3.org/Graphics/SVG/1.1/DTD/svg11.dtd">
<svg width="100%" height="100%" viewBox="0 0 160 80" version="1.1" xmlns="http://www.w3.org/2000/svg" xmlns:xlink="http://www.w3.org/1999/xlink" xml:space="preserve" xmlns:serif="http://www.serif.com/" style="fill-rule:evenodd;clip-rule:evenodd;stroke-linecap:round;stroke-linejoin:round;stroke-miterlimit:1.5;">
    <g id="cog1" transform="matrix(1,0,0,1,2.77228,0)">
        <g transform="matrix(1.1728,0,0,1.1728,-18.7408,-0.851168)">
            <path d="M55.425,4.104C53.026,3.824 50.604,3.824 48.206,4.104L47.022,9.001C44.73,9.423 42.504,10.146 40.402,11.152L36.566,7.887C34.461,9.07 32.501,10.494 30.725,12.13L32.645,16.787C31.039,18.476 29.664,20.369 28.554,22.418L23.531,22.031C22.524,24.226 21.775,26.53 21.301,28.897L25.591,31.536C25.285,33.846 25.285,36.187 25.591,38.497L21.301,41.136C21.775,43.503 22.524,45.807 23.531,48.002L28.554,47.615C29.664,49.664 31.039,51.557 32.645,53.246L30.725,57.903C32.501,59.539 34.461,60.963 36.566,62.146L40.402,58.881C42.504,59.887 44.73,60.61 47.022,61.032L48.206,65.929C50.604,66.209 53.026,66.209 55.425,65.929L56.609,61.032C58.901,60.61 61.127,59.887 63.229,58.881L67.065,62.146C69.169,60.963 71.129,59.539 72.905,57.903L70.985,53.246C72.591,51.557 73.967,49.664 75.076,47.615L80.099,48.002C81.106,45.807 81.855,43.503 82.33,41.136L78.039,38.497C78.346,36.187 78.346,33.846 78.039,31.536L82.33,28.897C81.855,26.53 81.106,24.226 80.099,22.031L75.076,22.418C73.967,20.369 72.591,18.476 70.985,16.787L72.905,12.13C71.129,10.494 69.169,9.07 67.065,7.887L63.229,11.152C61.127,10.146 58.901,9.423 56.609,9.001L55.425,4.104ZM51.815,12.919C64.011,12.919 73.913,22.82 73.913,35.017C73.913,47.213 64.011,57.114 51.815,57.114C39.619,57.114 29.718,47.213 29.718,35.017C29.718,22.82 39.619,12.919 51.815,12.919Z" style="fill:white;stroke:black;stroke-width:0.85px;"/>
        </g>
        <g transform="matrix(1.31589,0,0,1.31589,-39.1925,-38.6201)">
            <circle cx="61.723" cy="59.911" r="19.695" style="fill:white;stroke:black;stroke-width:0.76px;"/>
        </g>
        <g transform="matrix(1,0,0,1,5.27278,-0.0376207)">
            <text x="22.805px" y="57.954px" style="font-family:'PlayfairDisplay-Italic', 'Playfair Display';font-style:italic;font-size:50px;">S</text>
        </g>
    </g>
    <g id="cog2" transform="matrix(1,0,0,1,2.77228,0)">
        <g transform="matrix(2.12636,-0.685887,0.685887,2.12636,-138.429,56.6405)">
            <path d="M111.07,11.265C109.811,11.118 108.539,11.118 107.28,11.265L106.659,13.835C105.456,14.057 104.287,14.437 103.184,14.965L101.17,13.251C100.065,13.872 99.036,14.619 98.104,15.478L99.112,17.923C98.269,18.809 97.547,19.803 96.965,20.879L94.328,20.676C93.799,21.827 93.406,23.037 93.157,24.279L95.409,25.665C95.249,26.877 95.249,28.106 95.409,29.319L93.157,30.704C93.406,31.947 93.799,33.156 94.328,34.308L96.965,34.105C97.547,35.18 98.269,36.174 99.112,37.061L98.104,39.506C99.036,40.364 100.065,41.112 101.17,41.733L103.184,40.019C104.287,40.547 105.456,40.926 106.659,41.148L107.28,43.718C108.539,43.865 109.811,43.865 111.07,43.718L111.691,41.148C112.894,40.926 114.063,40.547 115.166,40.019L117.18,41.733C118.285,41.112 119.313,40.364 120.245,39.506L119.238,37.061C120.081,36.174 120.803,35.18 121.385,34.105L124.022,34.308C124.55,33.156 124.943,31.947 125.193,30.704L122.94,29.319C123.101,28.106 123.101,26.877 122.94,25.665L125.193,24.279C124.943,23.037 124.55,21.827 124.022,20.676L121.385,20.879C120.803,19.803 120.081,18.809 119.238,17.923L120.245,15.478C119.313,14.619 118.285,13.872 117.18,13.251L115.166,14.965C114.063,14.437 112.894,14.057 111.691,13.835L111.07,11.265ZM109.175,15.893C115.577,15.893 120.774,21.09 120.774,27.492C120.774,33.893 115.577,39.091 109.175,39.091C102.773,39.091 97.576,33.893 97.576,27.492C97.576,21.09 102.773,15.893 109.175,15.893Z" style="fill:white;stroke:black;stroke-width:0.45px;"/>
        </g>
        <g transform="matrix(1.42858,0,0,1.42858,5.41797,-6.098)">
            <circle cx="75.008" cy="32.431" r="18.13" style="fill:white;stroke:black;stroke-width:0.7px;"/>
        </g>
        <g transform="matrix(0.597836,0,0,1,41.2522,-0.7)">
            <text x="96.205px" y="58.616px" style="font-family:'PlayfairDisplay-Italic', 'Playfair Display';font-style:italic;font-size:51.375px;">M</text>
        </g>
    </g>
</svg>
