<?xml version="1.0" encoding="UTF-8" standalone="no"?>
<!DOCTYPE svg PUBLIC "-//W3C//DTD SVG 1.1//EN" "http://www.w3.org/Graphics/SVG/1.1/DTD/svg11.dtd">
<svg width="100%" height="100%" viewBox="0 0 160 80" version="1.1" xmlns="http://www.w3.org/2000/svg" xmlns:xlink="http://www.w3.org/1999/xlink" xml:space="preserve" xmlns:serif="http://www.serif.com/" style="fill-rule:evenodd;clip-rule:evenodd;stroke-linecap:round;stroke-linejoin:round;stroke-miterlimit:1.5;">
    <g transform="matrix(0.967153,0,0,0.967153,5.83058,0.932147)">
        <path d="M44.683,1.841C41.655,1.483 38.596,1.483 35.568,1.841L32.49,11.082C29.804,11.783 27.228,12.85 24.833,14.254L16.121,9.896C13.727,11.784 11.564,13.947 9.676,16.341L14.034,25.053C12.63,27.448 11.563,30.024 10.862,32.71L1.621,35.789C1.263,38.816 1.263,41.876 1.621,44.903L10.862,47.982C11.563,50.668 12.63,53.244 14.034,55.639L9.676,64.35C11.564,66.745 13.727,68.908 16.121,70.795L24.833,66.438C27.228,67.841 29.804,68.909 32.49,69.609L35.568,78.851C38.596,79.209 41.655,79.209 44.683,78.851L47.762,69.609C50.448,68.909 53.024,67.841 55.419,66.438L64.13,70.795C66.525,68.908 68.688,66.745 70.575,64.35L66.218,55.639C67.621,53.244 68.688,50.668 69.389,47.982L78.631,44.903C78.989,41.876 78.989,38.816 78.631,35.789L69.389,32.71C68.688,30.024 67.621,27.448 66.218,25.053L70.575,16.341C68.688,13.947 66.525,11.784 64.13,9.896L55.419,14.254C53.024,12.85 50.448,11.783 47.762,11.082L44.683,1.841ZM40.126,16.346C53.372,16.346 64.126,27.1 64.126,40.346C64.126,53.592 53.372,64.346 40.126,64.346C26.88,64.346 16.126,53.592 16.126,40.346C16.126,27.1 26.88,16.346 40.126,16.346Z" style="stroke:white;stroke-width:2.07px;"/>
        <g transform="matrix(1.09907,0,-1.07935e-16,1.09907,-27.9754,19.4632)">
            <circle cx="61.962" cy="19" r="21.837"/>
        </g>
        <g id="S" transform="matrix(1,0,0,0.888345,5.77179,3.51899)">
            <text x="20.094px" y="60.629px" style="font-family:'LilyScriptOne-Regular', 'Lily Script One';font-size:50.656px;fill:white;">S</text>
        </g>
    </g>
    <g transform="matrix(0.967153,0,0,0.967153,76.2685,0.932147)">
        <g transform="matrix(0.9241,0.382151,-0.382151,0.9241,18.4638,-12.2719)">
            <path d="M44.683,1.841C41.655,1.483 38.596,1.483 35.568,1.841L32.49,11.082C29.804,11.783 27.228,12.85 24.833,14.254L16.121,9.896C13.727,11.784 11.564,13.947 9.676,16.341L14.034,25.053C12.63,27.448 11.563,30.024 10.862,32.71L1.621,35.789C1.263,38.816 1.263,41.876 1.621,44.903L10.862,47.982C11.563,50.668 12.63,53.244 14.034,55.639L9.676,64.35C11.564,66.745 13.727,68.908 16.121,70.795L24.833,66.438C27.228,67.841 29.804,68.909 32.49,69.609L35.568,78.851C38.596,79.209 41.655,79.209 44.683,78.851L47.762,69.609C50.448,68.909 53.024,67.841 55.419,66.438L64.13,70.795C66.525,68.908 68.688,66.745 70.575,64.35L66.218,55.639C67.621,53.244 68.688,50.668 69.389,47.982L78.631,44.903C78.989,41.876 78.989,38.816 78.631,35.789L69.389,32.71C68.688,30.024 67.621,27.448 66.218,25.053L70.575,16.341C68.688,13.947 66.525,11.784 64.13,9.896L55.419,14.254C53.024,12.85 50.448,11.783 47.762,11.082L44.683,1.841ZM40.126,16.346C53.372,16.346 64.126,27.1 64.126,40.346C64.126,53.592 53.372,64.346 40.126,64.346C26.88,64.346 16.126,53.592 16.126,40.346C16.126,27.1 26.88,16.346 40.126,16.346Z" style="stroke:white;stroke-width:2.07px;"/>
        </g>
        <g transform="matrix(1.09907,0,-1.07935e-16,1.09907,-27.9754,19.4632)">
            <circle cx="61.962" cy="19" r="21.837"/>
        </g>
        <g id="M" transform="matrix(0.671071,0,0,0.888345,10.613,3.47399)">
            <text x="20.094px" y="60.629px" style="font-family:'LilyScriptOne-Regular', 'Lily Script One';font-size:50.656px;fill:white;">M</text>
        </g>
    </g>
</svg>
