<?xml version="1.0" encoding="UTF-8" standalone="no"?>
<!DOCTYPE svg PUBLIC "-//W3C//DTD SVG 1.1//EN" "http://www.w3.org/Graphics/SVG/1.1/DTD/svg11.dtd">
<svg width="100%" height="100%" viewBox="0 0 10 10" version="1.1" xmlns="http://www.w3.org/2000/svg" xmlns:xlink="http://www.w3.org/1999/xlink" xml:space="preserve" xmlns:serif="http://www.serif.com/" style="fill-rule:evenodd;clip-rule:evenodd;stroke-linecap:round;stroke-linejoin:round;stroke-miterlimit:1.5;">
    <g transform="matrix(1.16509,0,0,1.16509,-0.461547,-0.74681)">
        <path d="M4.979,1.146C4.735,1.122 4.489,1.122 4.246,1.146L4.125,1.733C3.891,1.769 3.662,1.831 3.442,1.916L3.043,1.468C2.82,1.569 2.607,1.692 2.408,1.834L2.598,2.404C2.413,2.552 2.245,2.719 2.097,2.904L1.528,2.715C1.386,2.914 1.263,3.127 1.161,3.35L1.61,3.748C1.524,3.968 1.463,4.197 1.427,4.431L0.839,4.552C0.815,4.796 0.815,5.041 0.839,5.285L1.427,5.406C1.463,5.64 1.524,5.869 1.61,6.089L1.161,6.487C1.263,6.711 1.386,6.923 1.528,7.123L2.097,6.933C2.245,7.118 2.413,7.285 2.598,7.433L2.408,8.003C2.607,8.145 2.82,8.268 3.043,8.369L3.442,7.921C3.662,8.006 3.891,8.068 4.125,8.104L4.246,8.691C4.489,8.715 4.735,8.715 4.979,8.691L5.1,8.104C5.333,8.068 5.562,8.006 5.783,7.921L6.181,8.369C6.404,8.268 6.617,8.145 6.816,8.003L6.627,7.433C6.811,7.285 6.979,7.118 7.127,6.933L7.696,7.123C7.839,6.923 7.962,6.711 8.063,6.487L7.614,6.089C7.7,5.869 7.761,5.64 7.797,5.406L8.385,5.285C8.409,5.041 8.409,4.796 8.385,4.552L7.797,4.431C7.761,4.197 7.7,3.968 7.614,3.748L8.063,3.35C7.962,3.127 7.839,2.914 7.696,2.715L7.127,2.904C6.979,2.719 6.811,2.552 6.627,2.404L6.816,1.834C6.617,1.692 6.404,1.569 6.181,1.468L5.783,1.916C5.562,1.831 5.333,1.769 5.1,1.733L4.979,1.146ZM4.612,4.16C5.031,4.16 5.37,4.5 5.37,4.919C5.37,5.337 5.031,5.677 4.612,5.677C4.194,5.677 3.854,5.337 3.854,4.919C3.854,4.5 4.194,4.16 4.612,4.16Z" style="fill:rgb(235,235,235);stroke:black;stroke-width:0.41px;"/>
    </g>
</svg>
